<?xml version="1.0" encoding="UTF-8" standalone="no"?>
<!DOCTYPE svg PUBLIC "-//W3C//DTD SVG 1.1//EN" "http://www.w3.org/Graphics/SVG/1.1/DTD/svg11.dtd">
<svg version="1.1" xmlns="http://www.w3.org/2000/svg" xmlns:xlink="http://www.w3.org/1999/xlink" preserveAspectRatio="xMidYMid meet" viewBox="0 0 640 320" width="640" height="320"><defs><path d="M0 37.5L228.57 37.5L228.57 118.45L0 118.45L0 37.5Z" id="c17C3D0EV3"></path><path d="M227.33 37.5L291.93 102.1L234.69 159.34L170.09 94.74L227.33 37.5Z" id="d9f2YQ8MH"></path><path d="M291.93 102.74L291.93 290.83L210.98 290.83L210.98 102.74L291.93 102.74Z" id="b21tFLXwN2"></path><path d="M52.74 29.17L103.93 29.17L103.93 47.02L52.74 47.02L52.74 29.17Z" id="a2nVr3NQeX"></path><path d="M65.83 109.52L90.83 109.52L90.83 127.38L65.83 127.38L65.83 109.52Z" id="cz9gtwC79"></path><path d="M202.05 262.5L202.05 237.5L219.91 237.5L219.91 262.5L202.05 262.5Z" id="a51WkXAiPn"></path><path d="M246.81 47.02L283 83.22L270.38 95.85L234.18 59.65L246.81 47.02Z" id="c1LZC1oPaa"></path><path d="M300.86 224.4L300.86 275.6L283 275.6L283 224.4L300.86 224.4Z" id="a2P07FsHvA"></path><path d="M640 37.5L477.26 37.5L477.26 118.45L640 118.45L640 37.5Z" id="bAd5WMUP2"></path><path d="M478.5 37.5L413.9 102.1L471.14 159.34L535.74 94.74L478.5 37.5Z" id="a5fRhoAr5L"></path><path d="M413.9 102.74L413.9 290.83L494.85 290.83L494.85 102.74L413.9 102.74Z" id="b66uWLZlD6"></path><path d="M640 109.52L615 109.52L615 127.38L640 127.38L640 109.52Z" id="aooRNfAkI"></path><path d="M503.78 262.5L503.78 237.5L485.92 237.5L485.92 262.5L503.78 262.5Z" id="b8L6MgHdV"></path><path d="M459.03 47.02L422.83 83.22L435.46 95.85L471.65 59.65L459.03 47.02Z" id="a5UtxrbmPA"></path><path d="M404.97 224.4L404.97 275.6L422.83 275.6L422.83 224.4L404.97 224.4Z" id="b5kMeWw7XR"></path></defs><g><g><g><use xlink:href="#c17C3D0EV3" ></use></g><g><use xlink:href="#d9f2YQ8MH"></use></g><g><use xlink:href="#b21tFLXwN2"></use></g><g><use xlink:href="#a2nVr3NQeX"></use></g><g><use xlink:href="#cz9gtwC79"></use></g><g><use xlink:href="#a51WkXAiPn"></use></g><g><use xlink:href="#c1LZC1oPaa"></use></g><g><use xlink:href="#a2P07FsHvA"></use></g><g><use xlink:href="#bAd5WMUP2"></use></g><g><use xlink:href="#a5fRhoAr5L"></use></g><g><use xlink:href="#b66uWLZlD6"></use></g><g><use xlink:href="#aooRNfAkI"></use></g><g><use xlink:href="#b8L6MgHdV"></use></g><g><use xlink:href="#a5UtxrbmPA"></use></g><g><use xlink:href="#b5kMeWw7XR"></use></g></g></g></svg>